<?xml version="1.0" encoding="UTF-8"?>
<svg width="376px" height="491px" viewBox="0 0 376 491" version="1.1" xmlns="http://www.w3.org/2000/svg" xmlns:xlink="http://www.w3.org/1999/xlink">
    <title>Bio Art</title>
    <g id="Bio-Art" stroke="none" stroke-width="1" fill="none" fill-rule="evenodd">
        <rect id="Rectangle" stroke="#DA7422" stroke-width="6" x="3" y="3" width="370" height="485" rx="20"></rect>
        <g id="Group" transform="translate(122.947496, 62.000000)" stroke="#DA7422" stroke-width="6">
            <path d="M34.5824034,94.5 C13.0525036,121 -6.14635499,149.039163 1.85278266,167.606235 C9.8519203,186.173308 43.8623955,183 65.0525036,183 C86.2426117,183 119.511032,181.52011 128.150934,167.606235 C136.790836,153.692361 111.474558,115.97672 93.9432913,94.5" id="Path-3"></path>
            <circle id="Oval" cx="65.0525036" cy="52" r="52"></circle>
        </g>
        <circle id="Oval" stroke="#DA7422" stroke-width="4" cx="285.5" cy="339.5" r="30.5"></circle>
        <path d="M241.5,415 C243.985281,415 246,417.014719 246,419.5 C246,421.985281 243.985281,424 241.5,424 L71.5,424 C69.0147186,424 67,421.985281 67,419.5 C67,417.014719 69.0147186,415 71.5,415 L241.5,415 Z M304.5,415 C306.985281,415 309,417.014719 309,419.5 C309,421.985281 306.985281,424 304.5,424 L265.5,424 C263.014719,424 261,421.985281 261,419.5 C261,417.014719 263.014719,415 265.5,415 L304.5,415 Z M304.5,388 C306.985281,388 309,390.014719 309,392.5 C309,394.985281 306.985281,397 304.5,397 L71.5,397 C69.0147186,397 67,394.985281 67,392.5 C67,390.014719 69.0147186,388 71.5,388 L304.5,388 Z M130.5,361 C132.985281,361 135,363.014719 135,365.5 C135,367.985281 132.985281,370 130.5,370 L71.5,370 C69.0147186,370 67,367.985281 67,365.5 C67,363.014719 69.0147186,361 71.5,361 L130.5,361 Z M238.5,361 C240.985281,361 243,363.014719 243,365.5 C243,367.985281 240.985281,370 238.5,370 L150.5,370 C148.014719,370 146,367.985281 146,365.5 C146,363.014719 148.014719,361 150.5,361 L238.5,361 Z M238.5,334 C240.985281,334 243,336.014719 243,338.5 C243,340.985281 240.985281,343 238.5,343 L71.5,343 C69.0147186,343 67,340.985281 67,338.5 C67,336.014719 69.0147186,334 71.5,334 L238.5,334 Z M192.5,307 C194.985281,307 197,309.014719 197,311.5 C197,313.985281 194.985281,316 192.5,316 L71.5,316 C69.0147186,316 67,313.985281 67,311.5 C67,309.014719 69.0147186,307 71.5,307 L192.5,307 Z" id="Rectangle-2" fill="#DA7422"></path>
        <rect id="Rectangle" stroke="#DA7422" stroke-width="7" x="87.5" y="43.5" width="201" height="220" rx="20"></rect>
        <path d="M79.5421461,23.3192039 C75.0842922,37.0608927 163.354201,134.852965 197,166 C230.645799,197.147035 277.664062,251 301.664062,246 C325.664062,241 309.993216,26.3099215 295.777972,37.9582216 C290.441925,42.3307022 285.062571,47.9073652 279.740914,54.2841545 C260.242348,77.6487275 62.354758,262.908631 50.5661577,288" id="Path-4" stroke="#DA7422" stroke-width="3"></path>
        <path d="M42.1924104,104.394739 C50.0449041,96.6235699 53.7605186,100.966062 57.0141199,104.394739 C60.2677212,107.823417 60.898938,108.151498 65.2290096,108.151498 C68.115724,108.151498 70.686704,106.800776 72.9419496,104.099333" id="Path-5" stroke="#DA7422" stroke-width="5" transform="translate(57.567180, 104.099333) rotate(13.000000) translate(-57.567180, -104.099333) "></path>
        <path d="M206.990309,24.6264025 C214.842803,16.8552332 218.558418,21.197725 221.812019,24.6264025 C225.06562,28.05508 225.696837,28.3831615 230.026908,28.3831615 C232.913623,28.3831615 235.484603,27.0324397 237.739849,24.3309961" id="Path-5" stroke="#DA7422" stroke-width="5" transform="translate(222.365079, 24.330996) rotate(115.000000) translate(-222.365079, -24.330996) "></path>
        <path d="M295.933172,155.568271 C303.785665,147.797102 307.50128,152.139594 310.754881,155.568271 C314.008482,158.996949 314.639699,159.32503 318.969771,159.32503 C321.856485,159.32503 324.427465,157.974308 326.682711,155.272865" id="Path-5" stroke="#DA7422" stroke-width="5" transform="translate(311.307941, 155.272865) rotate(165.000000) translate(-311.307941, -155.272865) "></path>
        <path d="M220.479254,285.75186 C228.331748,277.98069 232.047362,282.323182 235.300964,285.75186 C238.554565,289.180537 239.185782,289.508619 243.515853,289.508619 C246.402568,289.508619 248.973548,288.157897 251.228793,285.456453" id="Path-5" stroke="#DA7422" stroke-width="5" transform="translate(235.854024, 285.456453) rotate(245.000000) translate(-235.854024, -285.456453) "></path>
        <path d="M44.1924104,208.394739 C52.0449041,200.62357 55.7605186,204.966062 59.0141199,208.394739 C62.2677212,211.823417 62.898938,212.151498 67.2290096,212.151498 C70.115724,212.151498 72.686704,210.800776 74.9419496,208.099333" id="Path-5" stroke="#DA7422" stroke-width="5" transform="translate(59.567180, 208.099333) rotate(-30.000000) translate(-59.567180, -208.099333) "></path>
        <path d="M42.1924104,134.394739 C50.0449041,126.62357 53.7605186,130.966062 57.0141199,134.394739 C60.2677212,137.823417 60.898938,138.151498 65.2290096,138.151498 C68.115724,138.151498 70.686704,136.800776 72.9419496,134.099333" id="Path-5" stroke="#DA7422" stroke-width="5"></path>
    </g>
</svg>