<?xml version="1.0" encoding="UTF-8"?>
<svg width="678px" height="491px" viewBox="0 0 678 491" version="1.1" xmlns="http://www.w3.org/2000/svg" xmlns:xlink="http://www.w3.org/1999/xlink">
    <title>Blog Art</title>
    <g id="Blog-Art" stroke="none" stroke-width="1" fill="none" fill-rule="evenodd">
        <rect id="Rectangle" stroke="#5998C5" stroke-width="6" x="3" y="3" width="672" height="485" rx="20"></rect>
        <g id="Group-2" transform="translate(37.000000, 101.000000)">
            <rect id="Rectangle" stroke="#5998C5" stroke-width="5" x="2.5" y="2.5" width="242" height="208" rx="20"></rect>
            <path d="M85.726,133 L89.662,120.29 L106.8,120.29 L110.9,133 L122.708,133 L104.258,75.6 L93.024,75.6 L74.492,133 L85.726,133 Z M104.586,111.27 L92.286,111.27 L98.026,92.082 L98.764,92.082 L104.586,111.27 Z M141.158,133.656 C144.602,133.656 147.335333,133.041 149.358,131.811 C151.380667,130.581 152.938667,129.118667 154.032,127.424 L154.032,127.424 L154.442,127.424 L155.508,133 L169.12,133 L169.12,123.98 L163.79,123.98 C163.735333,123.269333 163.653333,122.531333 163.544,121.766 C163.434667,120.344667 163.38,119.06 163.38,117.912 C163.38,116.381333 163.475667,114.632 163.667,112.664 C163.858333,110.696 163.954,108.318 163.954,105.53 C163.954,103.343333 163.680667,101.375333 163.134,99.626 C162.587333,97.8766667 161.699,96.3733333 160.469,95.116 C159.239,93.8586667 157.626333,92.8883333 155.631,92.205 C153.635667,91.5216667 151.216667,91.18 148.374,91.18 C144.438,91.18 141.035,91.5353333 138.165,92.246 C135.295,92.9566667 132.766667,93.804 130.58,94.788 L130.58,94.788 L133.122,103.152 C134.652667,102.441333 136.538667,101.730667 138.78,101.02 C141.021333,100.309333 143.536,99.954 146.324,99.954 C148.674667,99.954 150.451333,100.405 151.654,101.307 C152.856667,102.209 153.458,103.698667 153.458,105.776 L153.458,105.776 L153.458,107.334 C153.458,107.880667 153.403333,108.427333 153.294,108.974 C151.708667,108.864667 150.369333,108.755333 149.276,108.646 C148.182667,108.536667 147.144,108.482 146.16,108.482 C143.372,108.482 140.843667,108.741667 138.575,109.261 C136.306333,109.780333 134.365667,110.573 132.753,111.639 C131.140333,112.705 129.910333,114.071667 129.063,115.739 C128.215667,117.406333 127.792,119.388 127.792,121.684 C127.792,125.292 128.994667,128.189333 131.4,130.376 C133.805333,132.562667 137.058,133.656 141.158,133.656 Z M144.602,124.882 C142.524667,124.882 141.035,124.458333 140.133,123.611 C139.231,122.763667 138.78,121.574667 138.78,120.044 C138.78,119.114667 139.026,118.322 139.518,117.666 C140.01,117.01 140.666,116.477 141.486,116.067 C142.306,115.657 143.235333,115.356333 144.274,115.165 C145.312667,114.973667 146.351333,114.878 147.39,114.878 C148.647333,114.878 149.822667,114.946333 150.916,115.083 C152.009333,115.219667 152.829333,115.342667 153.376,115.452 L153.376,115.452 L153.376,120.372 C152.774667,121.465333 151.818,122.490333 150.506,123.447 C149.194,124.403667 147.226,124.882 144.602,124.882 Z" id="Aa" fill="#5998C5" fill-rule="nonzero"></path>
        </g>
        <g id="Group" transform="translate(507.000000, 331.000000)">
            <polygon id="T" fill="#5998C5" fill-rule="nonzero" points="79.366 84 79.366 77.07 72.247 77.07 72.247 46.83 78.232 46.83 78.232 54.453 85.162 54.453 85.162 39.9 50.638 39.9 50.638 54.453 57.568 54.453 57.568 46.83 63.616 46.83 63.616 77.07 56.434 77.07 56.434 84"></polygon>
            <rect id="Rectangle" stroke="#5998C5" stroke-width="5" x="2.5" y="2.5" width="132" height="122" rx="20"></rect>
        </g>
        <path d="M467.5,449.5 C468.604569,449.5 469.604569,449.947715 470.328427,450.671573 C471.052285,451.395431 471.5,452.395431 471.5,453.5 C471.5,454.604569 471.052285,455.604569 470.328427,456.328427 C469.604569,457.052285 468.604569,457.5 467.5,457.5 L467.5,457.5 L47.5,457.5 C46.3954305,457.5 45.3954305,457.052285 44.6715729,456.328427 C43.9477153,455.604569 43.5,454.604569 43.5,453.5 C43.5,452.395431 43.9477153,451.395431 44.6715729,450.671573 C45.3954305,449.947715 46.3954305,449.5 47.5,449.5 L47.5,449.5 Z M467.5,421.5 C468.604569,421.5 469.604569,421.947715 470.328427,422.671573 C471.052285,423.395431 471.5,424.395431 471.5,425.5 C471.5,426.604569 471.052285,427.604569 470.328427,428.328427 C469.604569,429.052285 468.604569,429.5 467.5,429.5 L467.5,429.5 L378.5,429.5 C377.395431,429.5 376.395431,429.052285 375.671573,428.328427 C374.947715,427.604569 374.5,426.604569 374.5,425.5 C374.5,424.395431 374.947715,423.395431 375.671573,422.671573 C376.395431,421.947715 377.395431,421.5 378.5,421.5 L378.5,421.5 Z M354.5,421.5 C355.604569,421.5 356.604569,421.947715 357.328427,422.671573 C358.052285,423.395431 358.5,424.395431 358.5,425.5 C358.5,426.604569 358.052285,427.604569 357.328427,428.328427 C356.604569,429.052285 355.604569,429.5 354.5,429.5 L354.5,429.5 L47.5,429.5 C46.3954305,429.5 45.3954305,429.052285 44.6715729,428.328427 C43.9477153,427.604569 43.5,426.604569 43.5,425.5 C43.5,424.395431 43.9477153,423.395431 44.6715729,422.671573 C45.3954305,421.947715 46.3954305,421.5 47.5,421.5 L47.5,421.5 Z M421.5,393.5 C422.604569,393.5 423.604569,393.947715 424.328427,394.671573 C425.052285,395.395431 425.5,396.395431 425.5,397.5 C425.5,398.604569 425.052285,399.604569 424.328427,400.328427 C423.604569,401.052285 422.604569,401.5 421.5,401.5 L421.5,401.5 L47.5,401.5 C46.3954305,401.5 45.3954305,401.052285 44.6715729,400.328427 C43.9477153,399.604569 43.5,398.604569 43.5,397.5 C43.5,396.395431 43.9477153,395.395431 44.6715729,394.671573 C45.3954305,393.947715 46.3954305,393.5 47.5,393.5 L47.5,393.5 Z M467.5,365.5 C468.604569,365.5 469.604569,365.947715 470.328427,366.671573 C471.052285,367.395431 471.5,368.395431 471.5,369.5 C471.5,370.604569 471.052285,371.604569 470.328427,372.328427 C469.604569,373.052285 468.604569,373.5 467.5,373.5 L467.5,373.5 L47.5,373.5 C46.3954305,373.5 45.3954305,373.052285 44.6715729,372.328427 C43.9477153,371.604569 43.5,370.604569 43.5,369.5 C43.5,368.395431 43.9477153,367.395431 44.6715729,366.671573 C45.3954305,365.947715 46.3954305,365.5 47.5,365.5 L47.5,365.5 Z M467.5,337.5 C468.604569,337.5 469.604569,337.947715 470.328427,338.671573 C471.052285,339.395431 471.5,340.395431 471.5,341.5 C471.5,342.604569 471.052285,343.604569 470.328427,344.328427 C469.604569,345.052285 468.604569,345.5 467.5,345.5 L467.5,345.5 L290.5,345.5 C289.395431,345.5 288.395431,345.052285 287.671573,344.328427 C286.947715,343.604569 286.5,342.604569 286.5,341.5 C286.5,340.395431 286.947715,339.395431 287.671573,338.671573 C288.395431,337.947715 289.395431,337.5 290.5,337.5 L290.5,337.5 Z M258.5,337.5 C259.604569,337.5 260.604569,337.947715 261.328427,338.671573 C262.052285,339.395431 262.5,340.395431 262.5,341.5 C262.5,342.604569 262.052285,343.604569 261.328427,344.328427 C260.604569,345.052285 259.604569,345.5 258.5,345.5 L258.5,345.5 L47.5,345.5 C46.3954305,345.5 45.3954305,345.052285 44.6715729,344.328427 C43.9477153,343.604569 43.5,342.604569 43.5,341.5 C43.5,340.395431 43.9477153,339.395431 44.6715729,338.671573 C45.3954305,337.947715 46.3954305,337.5 47.5,337.5 L47.5,337.5 Z M534.5,294.5 C535.604569,294.5 536.604569,294.947715 537.328427,295.671573 C538.052285,296.395431 538.5,297.395431 538.5,298.5 C538.5,299.604569 538.052285,300.604569 537.328427,301.328427 C536.604569,302.052285 535.604569,302.5 534.5,302.5 L534.5,302.5 L323.5,302.5 C322.395431,302.5 321.395431,302.052285 320.671573,301.328427 C319.947715,300.604569 319.5,299.604569 319.5,298.5 C319.5,297.395431 319.947715,296.395431 320.671573,295.671573 C321.395431,294.947715 322.395431,294.5 323.5,294.5 L323.5,294.5 Z M639.5,294.5 C640.604569,294.5 641.604569,294.947715 642.328427,295.671573 C643.052285,296.395431 643.5,297.395431 643.5,298.5 C643.5,299.604569 643.052285,300.604569 642.328427,301.328427 C641.604569,302.052285 640.604569,302.5 639.5,302.5 L639.5,302.5 L561.5,302.5 C560.395431,302.5 559.395431,302.052285 558.671573,301.328427 C557.947715,300.604569 557.5,299.604569 557.5,298.5 C557.5,297.395431 557.947715,296.395431 558.671573,295.671573 C559.395431,294.947715 560.395431,294.5 561.5,294.5 L561.5,294.5 Z M639.5,263.5 C640.604569,263.5 641.604569,263.947715 642.328427,264.671573 C643.052285,265.395431 643.5,266.395431 643.5,267.5 C643.5,268.604569 643.052285,269.604569 642.328427,270.328427 C641.604569,271.052285 640.604569,271.5 639.5,271.5 L639.5,271.5 L323.5,271.5 C322.395431,271.5 321.395431,271.052285 320.671573,270.328427 C319.947715,269.604569 319.5,268.604569 319.5,267.5 C319.5,266.395431 319.947715,265.395431 320.671573,264.671573 C321.395431,263.947715 322.395431,263.5 323.5,263.5 L323.5,263.5 Z M391.5,232.5 C392.604569,232.5 393.604569,232.947715 394.328427,233.671573 C395.052285,234.395431 395.5,235.395431 395.5,236.5 C395.5,237.604569 395.052285,238.604569 394.328427,239.328427 C393.604569,240.052285 392.604569,240.5 391.5,240.5 L391.5,240.5 L323.5,240.5 C322.395431,240.5 321.395431,240.052285 320.671573,239.328427 C319.947715,238.604569 319.5,237.604569 319.5,236.5 C319.5,235.395431 319.947715,234.395431 320.671573,233.671573 C321.395431,232.947715 322.395431,232.5 323.5,232.5 L323.5,232.5 Z M639.5,232.5 C640.604569,232.5 641.604569,232.947715 642.328427,233.671573 C643.052285,234.395431 643.5,235.395431 643.5,236.5 C643.5,237.604569 643.052285,238.604569 642.328427,239.328427 C641.604569,240.052285 640.604569,240.5 639.5,240.5 L639.5,240.5 L418.5,240.5 C417.395431,240.5 416.395431,240.052285 415.671573,239.328427 C414.947715,238.604569 414.5,237.604569 414.5,236.5 C414.5,235.395431 414.947715,234.395431 415.671573,233.671573 C416.395431,232.947715 417.395431,232.5 418.5,232.5 L418.5,232.5 Z M555.5,201.5 C556.604569,201.5 557.604569,201.947715 558.328427,202.671573 C559.052285,203.395431 559.5,204.395431 559.5,205.5 C559.5,206.604569 559.052285,207.604569 558.328427,208.328427 C557.604569,209.052285 556.604569,209.5 555.5,209.5 L555.5,209.5 L323.5,209.5 C322.395431,209.5 321.395431,209.052285 320.671573,208.328427 C319.947715,207.604569 319.5,206.604569 319.5,205.5 C319.5,204.395431 319.947715,203.395431 320.671573,202.671573 C321.395431,201.947715 322.395431,201.5 323.5,201.5 L323.5,201.5 Z M639.5,170.5 C640.604569,170.5 641.604569,170.947715 642.328427,171.671573 C643.052285,172.395431 643.5,173.395431 643.5,174.5 C643.5,175.604569 643.052285,176.604569 642.328427,177.328427 C641.604569,178.052285 640.604569,178.5 639.5,178.5 L639.5,178.5 L323.5,178.5 C322.395431,178.5 321.395431,178.052285 320.671573,177.328427 C319.947715,176.604569 319.5,175.604569 319.5,174.5 C319.5,173.395431 319.947715,172.395431 320.671573,171.671573 C321.395431,170.947715 322.395431,170.5 323.5,170.5 L323.5,170.5 Z M451.5,139.5 C452.604569,139.5 453.604569,139.947715 454.328427,140.671573 C455.052285,141.395431 455.5,142.395431 455.5,143.5 C455.5,144.604569 455.052285,145.604569 454.328427,146.328427 C453.604569,147.052285 452.604569,147.5 451.5,147.5 L451.5,147.5 L323.5,147.5 C322.395431,147.5 321.395431,147.052285 320.671573,146.328427 C319.947715,145.604569 319.5,144.604569 319.5,143.5 C319.5,142.395431 319.947715,141.395431 320.671573,140.671573 C321.395431,139.947715 322.395431,139.5 323.5,139.5 L323.5,139.5 Z M639.5,108.5 C640.604569,108.5 641.604569,108.947715 642.328427,109.671573 C643.052285,110.395431 643.5,111.395431 643.5,112.5 C643.5,113.604569 643.052285,114.604569 642.328427,115.328427 C641.604569,116.052285 640.604569,116.5 639.5,116.5 L639.5,116.5 L323.5,116.5 C322.395431,116.5 321.395431,116.052285 320.671573,115.328427 C319.947715,114.604569 319.5,113.604569 319.5,112.5 C319.5,111.395431 319.947715,110.395431 320.671573,109.671573 C321.395431,108.947715 322.395431,108.5 323.5,108.5 L323.5,108.5 Z" id="Rectangle-2" stroke="#5998C5" fill="#5998C5"></path>
        <rect id="Title" stroke="#5998C5" fill="#5998C5" x="61.5" y="46.5" width="567" height="21" rx="10.5"></rect>
        <path d="M94.1792571,444.099914 C108.288284,448.050442 199.433002,445.262114 240.415786,420.688284 C281.398569,396.114453 371.587977,320.695889 371.587977,260.832609 C371.587977,200.969328 326.111645,209.500558 326.111645,236.205415 C326.111645,262.910273 347.736837,268.743152 359.102811,275.188284 C370.468786,281.633416 415.501738,280.785701 452.758444,264.565712 C490.015149,248.345723 610.509568,135.721089 615.431445,97.5125967" id="Path-2" stroke="#5998C5" stroke-width="3"></path>
        <path d="M10.4871797,112.140158 C11.1650777,111.779713 11.9804807,111.677878 12.7727095,111.920087 L12.7727095,111.920087 L29.9861951,117.182777 C30.7784239,117.424986 31.397478,117.965379 31.7579228,118.643277 C32.1183675,119.321175 32.2202029,120.136578 31.9779943,120.928807 C31.7357856,121.721036 31.1953927,122.34009 30.5174947,122.700534 C29.8395967,123.060979 29.0241937,123.162815 28.2319649,122.920606 L28.2319649,122.920606 L11.0184793,117.657915 C10.2262505,117.415707 9.60719637,116.875314 9.24675162,116.197416 C8.88630687,115.519518 8.78447148,114.704115 9.02668013,113.911886 C9.26888878,113.119657 9.80928172,112.500603 10.4871797,112.140158 Z M21.5757067,84.3736347 C22.343006,84.4004294 23.1000834,84.7199389 23.6650693,85.3258121 L23.6650693,85.3258121 L35.9410398,98.4901787 C36.5060258,99.096052 36.7719459,99.8735731 36.7451512,100.640872 C36.7183565,101.408172 36.398847,102.165249 35.7929738,102.730235 C35.1871006,103.295221 34.4095795,103.561141 33.6422802,103.534346 C32.874981,103.507552 32.1179036,103.188042 31.5529176,102.582169 L31.5529176,102.582169 L19.2769471,89.4178023 C18.7119612,88.811929 18.4460411,88.0344079 18.4728358,87.2671087 C18.4996304,86.4998094 18.8191399,85.742732 19.4250132,85.1777461 C20.0308864,84.6127601 20.8084075,84.34684 21.5757067,84.3736347 Z M48.6781146,71.6052568 C49.5045237,71.5474687 50.27612,71.8301198 50.8555611,72.3338202 C51.4350021,72.8375207 51.822288,73.5622704 51.8800761,74.3886795 L51.8800761,74.3886795 L53.1356927,92.3448324 C53.1934808,93.1712416 52.9108297,93.9428379 52.4071293,94.522279 C51.9034288,95.10172 51.178679,95.4890059 50.3522699,95.546794 C49.5258608,95.6045822 48.7542645,95.3219311 48.1748234,94.8182306 C47.5953823,94.3145302 47.2080965,93.5897804 47.1503084,92.7633713 L47.1503084,92.7633713 L45.8946918,74.8072184 C45.8369037,73.9808093 46.1195548,73.209213 46.6232552,72.6297719 C47.1269557,72.0503308 47.8517054,71.663045 48.6781146,71.6052568 Z" id="Shiny" stroke="#5998C5" fill="#5998C5"></path>
    </g>
</svg>